<?xml version="1.0" encoding="UTF-8"?>
<!DOCTYPE svg PUBLIC "-//W3C//DTD SVG 1.1//EN" "http://www.w3.org/Graphics/SVG/1.1/DTD/svg11.dtd">
<svg xmlns="http://www.w3.org/2000/svg" version="1.1" width="32px" height="32px" style="shape-rendering:geometricPrecision; text-rendering:geometricPrecision; image-rendering:optimizeQuality; fill-rule:evenodd; clip-rule:evenodd" xmlns:xlink="http://www.w3.org/1999/xlink">
<g><path style="opacity:1" fill="#00e9f2" d="M 19.5,-0.5 C 23.5,-0.5 27.5,-0.5 31.5,-0.5C 31.5,1.83333 31.5,4.16667 31.5,6.5C 30.8826,6.61071 30.3826,6.94404 30,7.5C 25.9878,5.29781 22.4878,2.63114 19.5,-0.5 Z"/></g>
<g><path style="opacity:1" fill="#04b4db" d="M 2.5,-0.5 C 5.83333,-0.5 9.16667,-0.5 12.5,-0.5C 13.4839,1.47993 14.8173,3.14659 16.5,4.5C 16.5,6.83333 16.5,9.16667 16.5,11.5C 15.7515,10.469 15.0848,9.30238 14.5,8C 9.90594,5.88163 5.90594,3.0483 2.5,-0.5 Z"/></g>
<g><path style="opacity:1" fill="#0795cd" d="M -0.5,-0.5 C 0.5,-0.5 1.5,-0.5 2.5,-0.5C 5.90594,3.0483 9.90594,5.88163 14.5,8C 15.0848,9.30238 15.7515,10.469 16.5,11.5C 16.81,14.7131 16.4767,17.7131 15.5,20.5C 15.8134,17.7531 15.48,15.0865 14.5,12.5C 9.33902,9.7535 4.33902,6.7535 -0.5,3.5C -0.5,2.16667 -0.5,0.833333 -0.5,-0.5 Z"/></g>
<g><path style="opacity:1" fill="#e2e8eb" d="M 16.5,4.5 C 17.8333,4.5 19.1667,4.5 20.5,4.5C 20.5,7.16667 20.5,9.83333 20.5,12.5C 20.5,15.1667 20.5,17.8333 20.5,20.5C 19.8561,23.144 18.1894,24.8106 15.5,25.5C 13.8008,25.6602 12.1341,25.4935 10.5,25C 9.24402,24.5831 8.57735,23.7498 8.5,22.5C 8.81103,21.5222 9.4777,20.8555 10.5,20.5C 12.3163,21.7349 13.983,21.7349 15.5,20.5C 16.4767,17.7131 16.81,14.7131 16.5,11.5C 16.5,9.16667 16.5,6.83333 16.5,4.5 Z"/></g>
<g><path style="opacity:1" fill="#0476be" d="M -0.5,3.5 C 4.33902,6.7535 9.33902,9.7535 14.5,12.5C 15.48,15.0865 15.8134,17.7531 15.5,20.5C 13.983,21.7349 12.3163,21.7349 10.5,20.5C 9.4777,20.8555 8.81103,21.5222 8.5,22.5C 5.5,23.8333 2.5,23.8333 -0.5,22.5C -0.5,16.1667 -0.5,9.83333 -0.5,3.5 Z"/></g>
<g><path style="opacity:1" fill="#20c3e2" d="M 20.5,4.5 C 23.8519,7.37117 27.5186,8.7045 31.5,8.5C 31.5,10.8333 31.5,13.1667 31.5,15.5C 27.9922,14.4959 24.8255,12.8293 22,10.5C 21.7216,11.4158 21.2216,12.0825 20.5,12.5C 20.5,9.83333 20.5,7.16667 20.5,4.5 Z"/></g>
<g><path style="opacity:1" fill="#01d6eb" d="M 12.5,-0.5 C 14.8333,-0.5 17.1667,-0.5 19.5,-0.5C 22.4878,2.63114 25.9878,5.29781 30,7.5C 30.3826,6.94404 30.8826,6.61071 31.5,6.5C 31.5,7.16667 31.5,7.83333 31.5,8.5C 27.5186,8.7045 23.8519,7.37117 20.5,4.5C 19.1667,4.5 17.8333,4.5 16.5,4.5C 14.8173,3.14659 13.4839,1.47993 12.5,-0.5 Z"/></g>
<g><path style="opacity:1" fill="#21a4d3" d="M 31.5,15.5 C 31.5,16.5 31.5,17.5 31.5,18.5C 27.7726,17.9484 24.6059,16.2818 22,13.5C 21.51,14.7932 21.3433,16.1266 21.5,17.5C 21.7373,18.791 21.404,19.791 20.5,20.5C 20.5,17.8333 20.5,15.1667 20.5,12.5C 21.2216,12.0825 21.7216,11.4158 22,10.5C 24.8255,12.8293 27.9922,14.4959 31.5,15.5 Z"/></g>
<g><path style="opacity:1" fill="#0474bd" d="M 21.5,17.5 C 24.5916,19.9296 27.9249,21.9296 31.5,23.5C 31.5,26.1667 31.5,28.8333 31.5,31.5C 28.1667,31.5 24.8333,31.5 21.5,31.5C 18.8806,29.4149 15.8806,27.9149 12.5,27C 13.7375,26.7679 14.7375,26.2679 15.5,25.5C 18.1894,24.8106 19.8561,23.144 20.5,20.5C 21.404,19.791 21.7373,18.791 21.5,17.5 Z"/></g>
<g><path style="opacity:1" fill="#0086c6" d="M 31.5,18.5 C 31.5,20.1667 31.5,21.8333 31.5,23.5C 27.9249,21.9296 24.5916,19.9296 21.5,17.5C 21.3433,16.1266 21.51,14.7932 22,13.5C 24.6059,16.2818 27.7726,17.9484 31.5,18.5 Z"/></g>
<g><path style="opacity:1" fill="#7bb3dc" d="M -0.5,25.5 C 2.55116,26.3991 4.55116,28.3991 5.5,31.5C 3.5,31.5 1.5,31.5 -0.5,31.5C -0.5,29.5 -0.5,27.5 -0.5,25.5 Z"/></g>
<g><path style="opacity:1" fill="#2c8ac8" d="M -0.5,22.5 C 2.5,23.8333 5.5,23.8333 8.5,22.5C 8.57735,23.7498 9.24402,24.5831 10.5,25C 12.1341,25.4935 13.8008,25.6602 15.5,25.5C 14.7375,26.2679 13.7375,26.7679 12.5,27C 15.8806,27.9149 18.8806,29.4149 21.5,31.5C 16.1667,31.5 10.8333,31.5 5.5,31.5C 4.55116,28.3991 2.55116,26.3991 -0.5,25.5C -0.5,24.5 -0.5,23.5 -0.5,22.5 Z"/></g>
</svg>
